<svg width="992" height="148" viewBox="0 0 992 148" fill="none" xmlns="http://www.w3.org/2000/svg">
<rect width="992" height="148" fill="white"/>
<rect width="90" height="90" transform="translate(1 29)" fill="white"/>
<path d="M39.4039 92C29.9039 89 27.71 82.7244 26.4039 77.5C24.4039 69.5 30.4039 63 31.9039 61C33.4039 59 40.2808 55 44.4039 55C54.4039 55 59.4039 59.5 60.9039 61C61.6945 61.7905 65.4039 66.0538 65.4039 73C65.4039 83 59.9039 87.7692 57.4039 89.5C49.9928 94.6308 44.4039 93.5789 39.4039 92Z" fill="#B0DEF7" stroke="#B0DEF7"/>
<path d="M61 67C61 69.7614 58.5376 72 55.5 72C52.4624 72 50 69.7614 50 67C50 64.2386 52.4624 62 55.5 62C58.5376 62 61 64.2386 61 67Z" fill="#E0F4FF"/>
<rect width="90" height="90" transform="translate(91 29)" fill="white"/>
<path d="M130 91.5C120.5 88.5 117.71 82.7244 116.404 77.5C114.404 69.5 120 63 121.5 61C123 59 130.877 55.5 135 55.5C145 55.5 150.5 60.5 152 62C152.791 62.7906 156 66.5538 156 73.5C156 83.5 151.5 86.7692 149 88.5C141.589 93.6308 135 93.0789 130 91.5Z" fill="#B0DEF7" stroke="#B0DEF7"/>
<path d="M151 66.5C151 68.9853 148.538 71 145.5 71C142.462 71 140 68.9853 140 66.5C140 64.0147 142.462 62 145.5 62C148.538 62 151 64.0147 151 66.5Z" fill="#E0F4FF"/>
<rect width="90" height="90" transform="translate(181 29)" fill="white"/>
<path d="M225 56C235 56 240.5 61 242 62.5C242.791 63.2906 246 69 246 74C246 82.5 242.268 85.7322 240.5 87.5C234 93.9999 225 94.5789 220 93C210.5 90 207.71 83.2243 206.404 78C204.404 70.0001 210 63.5001 211.5 61.5C213 59.5 220.877 56.0001 225 56Z" fill="#B0DEF7"/>
<path fill-rule="evenodd" clip-rule="evenodd" d="M225 53.6992C231.586 53.725 238.366 56.0634 243.107 60.8926C245.963 65.0515 247.226 68.8328 247.361 73.5C247.72 81.8934 241.491 89.8569 233.828 92.2969C231.378 93.2409 228.754 93.9757 226.059 94.0166C223.93 94.0593 221.82 93.6626 219.85 92.9766C217.74 92.7405 215.626 92.1617 213.655 91.1445C210.816 89.7022 208.371 87.2714 206.857 84.4131C205.746 82.3494 205.004 80.1474 204.469 77.9834C202.667 71.1755 206.152 64.3771 209.962 59.8457C214.905 55.566 219.139 54.2919 225 53.6992ZM225 57.3008C221.092 57.5563 215.476 59.9414 213.039 62.1543C209.368 66.6764 206.998 71.9342 208.34 77.0166C208.831 78.976 209.472 80.8341 210.38 82.5186C211.625 84.8433 213.224 86.8978 215.29 88.6816C216.722 89.9229 218.36 91.0279 220.151 92.0234C222.069 92.5727 224.048 92.8276 226.001 92.6855C228.474 92.5169 230.864 91.7235 233.172 90.7031C240.342 87.8845 245.136 81.0446 244.64 73.5C244.544 69.9322 242.717 65.6561 240.893 63.1074C236.745 59.1315 230.826 57.2018 225 57.3008Z" fill="#E0F4FF"/>
<path d="M238.027 77C243.089 77 243 81.3559 243 83.5342C243 86.3407 241.895 88.4359 241.343 88.9805C237.476 94.9696 231.952 92.7923 230.846 91.7031C228.636 89.525 228.36 86.802 230.293 82.9902C231.398 80.8121 234.16 77.0001 238.027 77Z" fill="white"/>
<path d="M239 66.5C239 68.9853 236.538 71 233.5 71C230.462 71 228 68.9853 228 66.5C228 64.0147 230.462 62 233.5 62C236.538 62 239 64.0147 239 66.5Z" fill="#E0F4FF"/>
<rect width="90" height="90" transform="translate(271 29)" fill="white"/>
<path d="M315 56C325 56 330.5 61 332 62.5C332.79 63.2906 336 69 336 74C336 82.5 332.268 85.7322 330.5 87.5C324 93.9999 315 94.5789 310 93C300.5 90 297.71 83.2243 296.404 78C294.404 70.0001 300 63.5001 301.5 61.5C303 59.5 310.877 56.0001 315 56Z" fill="#B0DEF7"/>
<path fill-rule="evenodd" clip-rule="evenodd" d="M315 53.6992C321.585 53.725 328.366 56.0634 333.107 60.8926C336 63.8388 337.226 68.8328 337.361 73.5C337.72 81.8934 331.491 89.8569 323.828 92.2969C321.378 93.2409 321.5 93 316.059 94.0166C313.93 94.0593 311.82 93.6626 309.85 92.9766C307.74 92.7405 305.971 91.7203 304 90.7031C302.029 89.6859 298.514 87.3584 297 84.5C295.888 82.4363 295.004 80.1474 294.469 77.9834C293.5 71 296.152 64.3771 299.962 59.8457C304.5 54.4488 309.139 54.2919 315 53.6992ZM315 57.3008C311.092 57.5563 305.476 59.9414 303.039 62.1543C299.368 66.6764 296.998 71.9342 298.34 77.0166C298.831 78.976 299.472 80.8341 300.38 82.5186C301.625 84.8433 303.224 86.8978 305.29 88.6816C306.722 89.9229 308.36 91.0279 310.151 92.0234C312.069 92.5727 314.048 92.8276 316.001 92.6855C318.474 92.5169 320.864 91.7235 323.172 90.7031C330.342 87.8845 335.136 81.0446 334.64 73.5C334.544 69.9322 332.717 65.6561 330.893 63.1074C326.745 59.1315 320.826 57.2018 315 57.3008Z" fill="#E0F4FF"/>
<path d="M328.317 75C334.101 75.0002 334 79.9012 334 82.3516C334 85.5088 332.737 87.8649 332.105 88.4775C327.686 95.2155 321.373 92.7663 320.109 91.541C317.584 89.0906 317.268 86.0266 319.478 81.7383C320.74 79.2878 323.898 75 328.317 75Z" fill="white"/>
<path d="M329 66.5C329 68.9853 326.761 71 324 71C321.239 71 319 68.9853 319 66.5C319 64.0147 321.239 62 324 62C326.761 62 329 64.0147 329 66.5Z" fill="#E0F4FF"/>
<rect width="90" height="90" transform="translate(361 29)" fill="white"/>
<path d="M405.5 55.5C415.5 55.5 422 61 423.5 62.5C424.291 63.2906 427.375 69 427.375 74C427.375 82.5 423.768 85.5125 422 87.2803C415.5 93.7802 405 94.5789 400 93C390.5 90 387.71 83.2243 386.404 78C384.404 70.0001 390 63.5001 391.5 61.5C393 59.5 401.377 55.5001 405.5 55.5Z" fill="#B0DEF7"/>
<path fill-rule="evenodd" clip-rule="evenodd" d="M405 53.6992C411.585 53.725 418.366 56.0634 423.107 60.8926C426 63.8388 427.226 68.8328 427.361 73.5C427.72 81.8934 421.491 89.8569 413.828 92.2969C411.378 93.2409 411.5 93 406.059 94.0166C403.93 94.0593 401.82 93.6626 399.85 92.9766C397.74 92.7405 395.971 91.7203 394 90.7031C392.029 89.6859 391.5 89.5 388.34 85.5C386.76 83.5 385.535 80.164 385 78C384.031 71.0166 385.582 63.8291 389.962 59.8457C395.29 55 399.139 54.2919 405 53.6992ZM406.059 56.0224C398.5 56.5 395.476 59.9414 393.039 62.1543C389.368 66.6764 386.998 71.9342 388.34 77.0166C388.831 78.976 389.472 80.8341 390.38 82.5186C391.625 84.8433 393.224 86.8978 395.29 88.6816C396.722 89.9229 398.208 90.5045 400 91.5C401.918 92.0493 404.048 92.8276 406.001 92.6855C408.474 92.5169 413.192 92.2174 415.5 91.197C422.67 88.3784 427.858 82.4322 427.361 74.8875C427.265 71.3197 426.107 65.2039 423.107 62.7039C418.96 58.728 414.5 55.5 406.059 56.0224Z" fill="#E0F4FF"/>
<path d="M418 62C418 64.2091 415.761 66 413 66C410.239 66 408 64.2091 408 62C408 59.7909 410.239 58 413 58C415.761 58 418 59.7909 418 62Z" fill="#E0F4FF"/>
<path d="M418 62C418 64.2091 415.761 66 413 66C410.239 66 408 64.2091 408 62C408 59.7909 410.239 58 413 58C415.761 58 418 59.7909 418 62Z" fill="#E0F4FF"/>
<path d="M431 74.5C431 75.3284 430.328 76 429.5 76C428.672 76 428 75.3284 428 74.5C428 73.6716 428.672 73 429.5 73C430.328 73 431 73.6716 431 74.5Z" fill="#E0F4FF"/>
<path d="M431 74.5C431 75.3284 430.328 76 429.5 76C428.672 76 428 75.3284 428 74.5C428 73.6716 428.672 73 429.5 73C430.328 73 431 73.6716 431 74.5Z" fill="#E0F4FF"/>
<path d="M434 69.5C434 70.8807 432.881 72 431.5 72C430.119 72 429 70.8807 429 69.5C429 68.1193 430.119 67 431.5 67C432.881 67 434 68.1193 434 69.5Z" fill="#E0F4FF"/>
<path d="M434 69.5C434 70.8807 432.881 72 431.5 72C430.119 72 429 70.8807 429 69.5C429 68.1193 430.119 67 431.5 67C432.881 67 434 68.1193 434 69.5Z" fill="#E0F4FF"/>
<path d="M425.5 67.5L426 69L427 73L427 75.5V79.5L425 84L423 86.5L419 89L416 90.5L413 91.5L409 92C406.5 90 406 82.3 406 85.5C406 88.7 402.5 91 399 90.5L395.5 88.5C395 88 393.066 86.1314 392.5 85C392 84 392 82.5 393 80.5C393.922 78.6561 396 76.5 397.5 76C399 75.5 403 75.5 404.5 77.5L406 80C406.5 76.5 408.351 73.1492 410 71.5C413.5 68 419.5 67.6667 420.5 67.5H425.5Z" fill="white" stroke="white"/>
<rect width="90" height="90" transform="translate(451 29)" fill="white"/>
<path d="M495.5 55.5C505.5 55.5 512 61 513.5 62.5C514.291 63.2906 517.375 69 517.375 74C517.375 82.5 513.768 85.5125 512 87.2803C505.5 93.7802 495 94.5789 490 93C480.5 90 477.71 83.2243 476.404 78C474.404 70.0001 480 63.5001 481.5 61.5C483 59.5 491.377 55.5001 495.5 55.5Z" fill="#B0DEF7"/>
<path fill-rule="evenodd" clip-rule="evenodd" d="M495 53.6992C501.585 53.725 508.366 56.0634 513.107 60.8926C516 63.8388 517.226 68.8328 517.361 73.5C517.72 81.8934 511.491 89.8569 503.828 92.2969C501.378 93.2409 501.5 93 496.059 94.0166C493.93 94.0593 491.82 93.6626 489.85 92.9766C487.74 92.7405 485.971 91.7203 484 90.7031C482.029 89.6859 481.5 89.5 478.34 85.5C476.76 83.5 475.535 80.164 475 78C474.031 71.0166 475.582 63.8291 479.962 59.8457C485.29 55 489.139 54.2919 495 53.6992ZM496.059 56.0224C488.5 56.5 485.476 59.9414 483.039 62.1543C479.368 66.6764 476.998 71.9342 478.34 77.0166C478.831 78.976 479.472 80.8341 480.38 82.5186C481.625 84.8433 483.224 86.8978 485.29 88.6816C486.722 89.9229 488.208 90.5045 490 91.5C491.918 92.0493 494.048 92.8276 496.001 92.6855C498.474 92.5169 503.192 92.2174 505.5 91.197C512.67 88.3784 517.858 82.4322 517.361 74.8875C517.265 71.3197 516.107 65.2039 513.107 62.7039C508.96 58.728 504.5 55.5 496.059 56.0224Z" fill="#E0F4FF"/>
<path d="M508 62C508 64.2091 505.761 66 503 66C500.239 66 498 64.2091 498 62C498 59.7909 500.239 58 503 58C505.761 58 508 59.7909 508 62Z" fill="#E0F4FF"/>
<path d="M508 62C508 64.2091 505.761 66 503 66C500.239 66 498 64.2091 498 62C498 59.7909 500.239 58 503 58C505.761 58 508 59.7909 508 62Z" fill="#E0F4FF"/>
<path d="M523 75.5C523 76.3284 522.328 77 521.5 77C520.672 77 520 76.3284 520 75.5C520 74.6716 520.672 74 521.5 74C522.328 74 523 74.6716 523 75.5Z" fill="#E0F4FF"/>
<path d="M523 75.5C523 76.3284 522.328 77 521.5 77C520.672 77 520 76.3284 520 75.5C520 74.6716 520.672 74 521.5 74C522.328 74 523 74.6716 523 75.5Z" fill="#E0F4FF"/>
<path d="M526 70.5C526 71.8807 524.881 73 523.5 73C522.119 73 521 71.8807 521 70.5C521 69.1193 522.119 68 523.5 68C524.881 68 526 69.1193 526 70.5Z" fill="#E0F4FF"/>
<path d="M526 70.5C526 71.8807 524.881 73 523.5 73C522.119 73 521 71.8807 521 70.5C521 69.1193 522.119 68 523.5 68C524.881 68 526 69.1193 526 70.5Z" fill="#E0F4FF"/>
<path d="M515.5 67.5L516 69L517 73L517 75.5V79.5L515 84L513 86.5L509 89L506 90.5L503 91.5L499 92C498.101 91.281 497.719 90.0838 497.599 88.9938C496.421 90.9447 492.874 91.4105 490 91L485.5 88.5C485 88 483.066 86.1314 482.5 85C482 84 481.458 80.6693 482 78.5C482.5 76.5 484 73.5833 487.5 73C491 72.4167 492 72.5 494.5 74L496.5 75.5C496.5 71 500 68 501 67.5C504.59 65.7049 508.5 65 512 66L515.5 67.5Z" fill="white"/>
<path d="M517 75.5V79.5L515 84L513 86.5L509 89L506 90.5L503 91.5L499 92C496.5 90 498 84.3 498 87.5C498 90.7 493.5 91.5 490 91L485.5 88.5C485 88 483.066 86.1314 482.5 85C482 84 481.458 80.6693 482 78.5C482.5 76.5 484 73.5833 487.5 73C491 72.4167 492 72.5 494.5 74L496.5 75.5C496.5 71 500 68 501 67.5C504.59 65.7049 508.5 65 512 66L515.5 67.5L516 69L517 73L517 75.5Z" stroke="white"/>
<rect width="90" height="90" transform="translate(541 29)" fill="white"/>
<path d="M585.5 55.5C595.5 55.5 602 61 603.5 62.5C604.291 63.2906 607.375 69 607.375 74C607.375 82.5 603.768 85.5125 602 87.2803C595.5 93.7802 585 94.5789 580 93C570.5 90 567.71 83.2243 566.404 78C564.404 70.0001 570 63.5001 571.5 61.5C573 59.5 581.377 55.5001 585.5 55.5Z" fill="#B0DEF7"/>
<path fill-rule="evenodd" clip-rule="evenodd" d="M585 53.6992C591.585 53.725 598.366 56.0634 603.107 60.8926C606 63.8388 607.226 68.8328 607.361 73.5C607.72 81.8934 601.491 89.8569 593.828 92.2969C591.378 93.2409 591.5 93 586.059 94.0166C583.93 94.0593 581.82 93.6626 579.85 92.9766C577.74 92.7405 575.971 91.7203 574 90.7031C572.029 89.6859 571.5 89.5 568.34 85.5C566.76 83.5 565.535 80.164 565 78C564.031 71.0166 565.582 63.8291 569.962 59.8457C575.29 55 579.139 54.2919 585 53.6992ZM586.059 56.0224C578.5 56.5 575.476 59.9414 573.039 62.1543C569.368 66.6764 566.998 71.9342 568.34 77.0166C568.831 78.976 569.472 80.8341 570.38 82.5186C571.625 84.8433 573.224 86.8978 575.29 88.6816C576.722 89.9229 578.208 90.5045 580 91.5C581.918 92.0493 584.048 92.8276 586.001 92.6855C588.474 92.5169 593.192 92.2174 595.5 91.197C602.67 88.3784 607.858 82.4322 607.361 74.8875C607.265 71.3197 606.107 65.2039 603.107 62.7039C598.96 58.728 594.5 55.5 586.059 56.0224Z" fill="#E0F4FF"/>
<path d="M598 62C598 64.2091 595.761 66 593 66C590.239 66 588 64.2091 588 62C588 59.7909 590.239 58 593 58C595.761 58 598 59.7909 598 62Z" fill="#E0F4FF"/>
<path d="M598 62C598 64.2091 595.761 66 593 66C590.239 66 588 64.2091 588 62C588 59.7909 590.239 58 593 58C595.761 58 598 59.7909 598 62Z" fill="#E0F4FF"/>
<path d="M612 76.5C612 77.3284 611.328 78 610.5 78C609.672 78 609 77.3284 609 76.5C609 75.6716 609.672 75 610.5 75C611.328 75 612 75.6716 612 76.5Z" fill="#E0F4FF"/>
<path d="M612 76.5C612 77.3284 611.328 78 610.5 78C609.672 78 609 77.3284 609 76.5C609 75.6716 609.672 75 610.5 75C611.328 75 612 75.6716 612 76.5Z" fill="#E0F4FF"/>
<path d="M604.5 65L606 68.5L607 73L607 75.5V79.5L605 84L603 86.5L599 89L596 90.5L593 91.5L591 92C590.5 92 589 92.5 586.5 92.5C584 92.5 584 92.5 580 91.0001L580 91L575.5 88.5C575 88 572.894 86.3944 572 85.5C571 84.5 569.024 81.6944 568.5 77.5C568 73.5 568.5 71 570 67.5C571.5 64 573 62 575.5 60L581 57C587 55.5 589.387 56.3988 590.5 56.5C596 57 599.5 59.5 602.5 62.5L604.5 65Z" fill="white" stroke="white"/>
<path d="M581 56C581 58.2091 579.209 60 577 60C574.791 60 573 58.2091 573 56C573 53.7909 574.791 52 577 52C579.209 52 581 53.7909 581 56Z" fill="#E0F4FF"/>
<path d="M581 56C581 58.2091 579.209 60 577 60C574.791 60 573 58.2091 573 56C573 53.7909 574.791 52 577 52C579.209 52 581 53.7909 581 56Z" fill="#E0F4FF"/>
<path d="M571 82C571 83.6569 569.657 85 568 85C566.343 85 565 83.6569 565 82C565 80.3431 566.343 79 568 79C569.657 79 571 80.3431 571 82Z" fill="#E0F4FF"/>
<path d="M571 82C571 83.6569 569.657 85 568 85C566.343 85 565 83.6569 565 82C565 80.3431 566.343 79 568 79C569.657 79 571 80.3431 571 82Z" fill="#E0F4FF"/>
<path d="M590 93.5C590 94.3284 589.328 95 588.5 95C587.672 95 587 94.3284 587 93.5C587 92.6716 587.672 92 588.5 92C589.328 92 590 92.6716 590 93.5Z" fill="#E0F4FF"/>
<path d="M590 93.5C590 94.3284 589.328 95 588.5 95C587.672 95 587 94.3284 587 93.5C587 92.6716 587.672 92 588.5 92C589.328 92 590 92.6716 590 93.5Z" fill="#E0F4FF"/>
<path d="M584 92C584 93.6569 582.657 95 581 95C579.343 95 578 93.6569 578 92C578 90.3431 579.343 89 581 89C582.657 89 584 90.3431 584 92Z" fill="#E0F4FF"/>
<path d="M584 92C584 93.6569 582.657 95 581 95C579.343 95 578 93.6569 578 92C578 90.3431 579.343 89 581 89C582.657 89 584 90.3431 584 92Z" fill="#E0F4FF"/>
<rect width="90" height="90" transform="translate(631 29)" fill="white"/>
<path d="M675.5 55.5C685.5 55.5 692 61 693.5 62.5C694.291 63.2906 697.375 69 697.375 74C697.375 82.5 693.768 85.5125 692 87.2803C685.5 93.7802 675 94.5789 670 93C660.5 90 657.71 83.2243 656.404 78C654.404 70.0001 660 63.5001 661.5 61.5C663 59.5 671.377 55.5001 675.5 55.5Z" fill="#B0DEF7"/>
<path fill-rule="evenodd" clip-rule="evenodd" d="M675 53.6992C681.585 53.725 688.366 56.0634 693.107 60.8926C696 63.8388 697.226 68.8328 697.361 73.5C697.72 81.8934 691.491 89.8569 683.828 92.2969C681.378 93.2409 681.5 93 676.059 94.0166C673.93 94.0593 671.82 93.6626 669.85 92.9766C667.74 92.7405 665.971 91.7203 664 90.7031C662.029 89.6859 661.5 89.5 658.34 85.5C656.76 83.5 655.535 80.164 655 78C654.031 71.0166 655.582 63.8291 659.962 59.8457C665.29 55 669.139 54.2919 675 53.6992ZM676.059 56.0224C668.5 56.5 665.476 59.9414 663.039 62.1543C659.368 66.6764 656.998 71.9342 658.34 77.0166C658.831 78.976 659.472 80.8341 660.38 82.5186C661.625 84.8433 663.224 86.8978 665.29 88.6816C666.722 89.9229 668.208 90.5045 670 91.5C671.918 92.0493 674.048 92.8276 676.001 92.6855C678.474 92.5169 683.192 92.2174 685.5 91.197C692.67 88.3784 697.858 82.4322 697.361 74.8875C697.265 71.3197 696.107 65.2039 693.107 62.7039C688.96 58.728 684.5 55.5 676.059 56.0224Z" fill="#E0F4FF"/>
<path d="M688 62C688 64.2091 685.761 66 683 66C680.239 66 678 64.2091 678 62C678 59.7909 680.239 58 683 58C685.761 58 688 59.7909 688 62Z" fill="#E0F4FF"/>
<path d="M688 62C688 64.2091 685.761 66 683 66C680.239 66 678 64.2091 678 62C678 59.7909 680.239 58 683 58C685.761 58 688 59.7909 688 62Z" fill="#E0F4FF"/>
<path d="M696.351 64.5026L697.94 68.2568L699 73.0836L699 75.7652V80.0558L696.88 84.8826L694.761 87.5642L690.522 90.2458L687.342 91.8547L684.163 92.9274L682.044 93.4637C681.514 93.4637 679.924 94 677.275 94C674.625 94 674.625 94 670.386 92.3911L670.386 92.3911L665.617 89.7095C665.087 89.1731 662.856 87.451 661.908 86.4916C660.848 85.4189 658.754 82.4095 658.199 77.9105C657.669 73.62 658.199 70.9384 659.788 67.1842C661.378 63.4299 662.968 61.2847 665.617 59.1394L671.446 55.9215C677.804 54.3126 680.334 55.2766 681.514 55.3852C687.342 55.9215 691.052 58.6031 694.231 61.821L696.351 64.5026Z" fill="white" stroke="white"/>
<path d="M702 76.5C702 77.3284 701.328 78 700.5 78C699.672 78 699 77.3284 699 76.5C699 75.6716 699.672 75 700.5 75C701.328 75 702 75.6716 702 76.5Z" fill="#E0F4FF"/>
<path d="M702 76.5C702 77.3284 701.328 78 700.5 78C699.672 78 699 77.3284 699 76.5C699 75.6716 699.672 75 700.5 75C701.328 75 702 75.6716 702 76.5Z" fill="#E0F4FF"/>
<path d="M671 56.5C671 58.433 669.433 60 667.5 60C665.567 60 664 58.433 664 56.5C664 54.567 665.567 53 667.5 53C669.433 53 671 54.567 671 56.5Z" fill="#E0F4FF"/>
<path d="M671 56.5C671 58.433 669.433 60 667.5 60C665.567 60 664 58.433 664 56.5C664 54.567 665.567 53 667.5 53C669.433 53 671 54.567 671 56.5Z" fill="#E0F4FF"/>
<path d="M659 81C659 82.1046 658.105 83 657 83C655.895 83 655 82.1046 655 81C655 79.8954 655.895 79 657 79C658.105 79 659 79.8954 659 81Z" fill="#E0F4FF"/>
<path d="M659 81C659 82.1046 658.105 83 657 83C655.895 83 655 82.1046 655 81C655 79.8954 655.895 79 657 79C658.105 79 659 79.8954 659 81Z" fill="#E0F4FF"/>
<path d="M680 93.5C680 94.3284 679.328 95 678.5 95C677.672 95 677 94.3284 677 93.5C677 92.6716 677.672 92 678.5 92C679.328 92 680 92.6716 680 93.5Z" fill="#E0F4FF"/>
<path d="M680 93.5C680 94.3284 679.328 95 678.5 95C677.672 95 677 94.3284 677 93.5C677 92.6716 677.672 92 678.5 92C679.328 92 680 92.6716 680 93.5Z" fill="#E0F4FF"/>
<path d="M672 93C672 94.1046 671.105 95 670 95C668.895 95 668 94.1046 668 93C668 91.8954 668.895 91 670 91C671.105 91 672 91.8954 672 93Z" fill="#E0F4FF"/>
<path d="M672 93C672 94.1046 671.105 95 670 95C668.895 95 668 94.1046 668 93C668 91.8954 668.895 91 670 91C671.105 91 672 91.8954 672 93Z" fill="#E0F4FF"/>
<rect width="90" height="90" transform="translate(721 29)" fill="white"/>
<path d="M782 57C782 59.7614 779.538 62 776.5 62C773.462 62 771 59.7614 771 57C771 54.2386 773.462 52 776.5 52C779.538 52 782 54.2386 782 57Z" fill="#E0F4FF"/>
<path d="M782 57C782 59.7614 779.538 62 776.5 62C773.462 62 771 59.7614 771 57C771 54.2386 773.462 52 776.5 52C779.538 52 782 54.2386 782 57Z" fill="#E0F4FF"/>
<path d="M791.162 67.1041C791.122 68.1816 790.174 69.0208 789.044 68.9785C787.915 68.9362 787.033 68.0285 787.073 66.951C787.113 65.8735 788.061 65.0343 789.191 65.0766C790.32 65.1189 791.202 66.0266 791.162 67.1041Z" fill="#E0F4FF"/>
<path d="M791.162 67.1041C791.122 68.1816 790.174 69.0208 789.044 68.9785C787.915 68.9362 787.033 68.0285 787.073 66.951C787.113 65.8735 788.061 65.0343 789.191 65.0766C790.32 65.1189 791.202 66.0266 791.162 67.1041Z" fill="#E0F4FF"/>
<path d="M760 56C760 57.6569 758.657 59 757 59C755.343 59 754 57.6569 754 56C754 54.3431 755.343 53 757 53C758.657 53 760 54.3431 760 56Z" fill="#E0F4FF"/>
<path d="M760 56C760 57.6569 758.657 59 757 59C755.343 59 754 57.6569 754 56C754 54.3431 755.343 53 757 53C758.657 53 760 54.3431 760 56Z" fill="#E0F4FF"/>
<path d="M785 61.5C785 63.433 783.433 65 781.5 65C779.567 65 778 63.433 778 61.5C778 59.567 779.567 58 781.5 58C783.433 58 785 59.567 785 61.5Z" fill="#E0F4FF"/>
<path d="M785 61.5C785 63.433 783.433 65 781.5 65C779.567 65 778 63.433 778 61.5C778 59.567 779.567 58 781.5 58C783.433 58 785 59.567 785 61.5Z" fill="#E0F4FF"/>
<path d="M748 80.5C748 81.3284 747.328 82 746.5 82C745.672 82 745 81.3284 745 80.5C745 79.6716 745.672 79 746.5 79C747.328 79 748 79.6716 748 80.5Z" fill="#E0F4FF"/>
<path d="M748 80.5C748 81.3284 747.328 82 746.5 82C745.672 82 745 81.3284 745 80.5C745 79.6716 745.672 79 746.5 79C747.328 79 748 79.6716 748 80.5Z" fill="#E0F4FF"/>
<path d="M768 92.5C768 92.7761 767.776 93 767.5 93C767.224 93 767 92.7761 767 92.5C767 92.2239 767.224 92 767.5 92C767.776 92 768 92.2239 768 92.5Z" fill="#E0F4FF"/>
<path d="M768 92.5C768 92.7761 767.776 93 767.5 93C767.224 93 767 92.7761 767 92.5C767 92.2239 767.224 92 767.5 92C767.776 92 768 92.2239 768 92.5Z" fill="#E0F4FF"/>
<path d="M763 94C763 95.1046 762.105 96 761 96C759.895 96 759 95.1046 759 94C759 92.8954 759.895 92 761 92C762.105 92 763 92.8954 763 94Z" fill="#E0F4FF"/>
<path d="M763 94C763 95.1046 762.105 96 761 96C759.895 96 759 95.1046 759 94C759 92.8954 759.895 92 761 92C762.105 92 763 92.8954 763 94Z" fill="#E0F4FF"/>
<rect width="90" height="90" transform="translate(811 29)" fill="white"/>
<path d="M874 52C874 54.2091 872.209 56 870 56C867.791 56 866 54.2091 866 52C866 49.7909 867.791 48 870 48C872.209 48 874 49.7909 874 52Z" fill="#E0F4FF"/>
<path d="M874 52C874 54.2091 872.209 56 870 56C867.791 56 866 54.2091 866 52C866 49.7909 867.791 48 870 48C872.209 48 874 49.7909 874 52Z" fill="#E0F4FF"/>
<path d="M883.962 65.0361C883.942 65.5684 883.495 65.9839 882.963 65.9639C882.431 65.944 882.016 65.4963 882.036 64.9639C882.056 64.4316 882.503 64.0161 883.035 64.0361C883.567 64.056 883.982 64.5037 883.962 65.0361Z" fill="#E0F4FF"/>
<path d="M883.962 65.0361C883.942 65.5684 883.495 65.9839 882.963 65.9639C882.431 65.944 882.016 65.4963 882.036 64.9639C882.056 64.4316 882.503 64.0161 883.035 64.0361C883.567 64.056 883.982 64.5037 883.962 65.0361Z" fill="#E0F4FF"/>
<path d="M847 53.5C847 54.8807 845.881 56 844.5 56C843.119 56 842 54.8807 842 53.5C842 52.1193 843.119 51 844.5 51C845.881 51 847 52.1193 847 53.5Z" fill="#E0F4FF"/>
<path d="M847 53.5C847 54.8807 845.881 56 844.5 56C843.119 56 842 54.8807 842 53.5C842 52.1193 843.119 51 844.5 51C845.881 51 847 52.1193 847 53.5Z" fill="#E0F4FF"/>
<path d="M875 58C875 59.6569 873.657 61 872 61C870.343 61 869 59.6569 869 58C869 56.3431 870.343 55 872 55C873.657 55 875 56.3431 875 58Z" fill="#E0F4FF"/>
<path d="M875 58C875 59.6569 873.657 61 872 61C870.343 61 869 59.6569 869 58C869 56.3431 870.343 55 872 55C873.657 55 875 56.3431 875 58Z" fill="#E0F4FF"/>
<path d="M835 80C835 80.5523 834.552 81 834 81C833.448 81 833 80.5523 833 80C833 79.4477 833.448 79 834 79C834.552 79 835 79.4477 835 80Z" fill="#E0F4FF"/>
<path d="M835 80C835 80.5523 834.552 81 834 81C833.448 81 833 80.5523 833 80C833 79.4477 833.448 79 834 79C834.552 79 835 79.4477 835 80Z" fill="#E0F4FF"/>
<path d="M853 95.5C853 96.3284 852.328 97 851.5 97C850.672 97 850 96.3284 850 95.5C850 94.6716 850.672 94 851.5 94C852.328 94 853 94.6716 853 95.5Z" fill="#E0F4FF"/>
<path d="M853 95.5C853 96.3284 852.328 97 851.5 97C850.672 97 850 96.3284 850 95.5C850 94.6716 850.672 94 851.5 94C852.328 94 853 94.6716 853 95.5Z" fill="#E0F4FF"/>
<rect width="90" height="90" transform="translate(901 29)" fill="white"/>
<path d="M963 47C963 48.1046 962.105 49 961 49C959.895 49 959 48.1046 959 47C959 45.8954 959.895 45 961 45C962.105 45 963 45.8954 963 47Z" fill="#E0F4FF"/>
<path d="M963 47C963 48.1046 962.105 49 961 49C959.895 49 959 48.1046 959 47C959 45.8954 959.895 45 961 45C962.105 45 963 45.8954 963 47Z" fill="#E0F4FF"/>
<path d="M930 47C930 47.5523 929.552 48 929 48C928.448 48 928 47.5523 928 47C928 46.4477 928.448 46 929 46C929.552 46 930 46.4477 930 47Z" fill="#E0F4FF"/>
<path d="M930 47C930 47.5523 929.552 48 929 48C928.448 48 928 47.5523 928 47C928 46.4477 928.448 46 929 46C929.552 46 930 46.4477 930 47Z" fill="#E0F4FF"/>
<path d="M969 50C969 50.5523 968.552 51 968 51C967.448 51 967 50.5523 967 50C967 49.4477 967.448 49 968 49C968.552 49 969 49.4477 969 50Z" fill="#E0F4FF"/>
<path d="M969 50C969 50.5523 968.552 51 968 51C967.448 51 967 50.5523 967 50C967 49.4477 967.448 49 968 49C968.552 49 969 49.4477 969 50Z" fill="#E0F4FF"/>
<path d="M942 98C942 98.5523 941.552 99 941 99C940.448 99 940 98.5523 940 98C940 97.4477 940.448 97 941 97C941.552 97 942 97.4477 942 98Z" fill="#E0F4FF"/>
<path d="M942 98C942 98.5523 941.552 99 941 99C940.448 99 940 98.5523 940 98C940 97.4477 940.448 97 941 97C941.552 97 942 97.4477 942 98Z" fill="#E0F4FF"/>
</svg>
