<svg width="90" height="90" viewBox="0 0 90 90" fill="none" xmlns="http://www.w3.org/2000/svg">
<rect width="90" height="90" fill="white"/>
<path d="M38.4039 63C28.9039 60 26.71 53.7244 25.4039 48.5C23.4039 40.5 29.4039 34 30.9039 32C32.4039 30 39.2808 26 43.4039 26C53.4039 26 58.4039 30.5 59.9039 32C60.6945 32.7905 64.4039 37.0538 64.4039 44C64.4039 54 58.9039 58.7692 56.4039 60.5C48.9928 65.6308 43.4039 64.5789 38.4039 63Z" fill="#B0DEF7" stroke="#B0DEF7"/>
<path d="M60 38C60 40.7614 57.5376 43 54.5 43C51.4624 43 49 40.7614 49 38C49 35.2386 51.4624 33 54.5 33C57.5376 33 60 35.2386 60 38Z" fill="#E0F4FF"/>
</svg>
